# xmcd
#
# Track frame offsets:
#	150
#	25083
#	53830
#	74680
#	109945
#	130753
#	148743
#	174713
#	198695
#
# Disc length: 3011 seconds
#
# Revision: 1
# Processed by: cddbd v1.5.1PL0 Copyright (c) Steve Scherf et al.
# Submitted via: CDex 1.50Beta5
#
DISCID=8b0bc109
DTITLE=さだまさし - 印象派
DYEAR=1991
DGENRE=Pop
TTITLE0=距離
TTITLE1=検察側の証人
TTITLE2=聖野菜祭
TTITLE3=みるくは風になった
TTITLE4=たずねびと
TTITLE5=推理小説
TTITLE6=0-15
TTITLE7=神話
TTITLE8=博物館
EXTD=
EXTT0=
EXTT1=
EXTT2=
EXTT3=
EXTT4=
EXTT5=
EXTT6=
EXTT7=
EXTT8=
PLAYORDER=
